<mxfile host="app.diagrams.net" modified="2024-06-26T08:14:44.197Z" agent="Mozilla/5.0 (Windows NT 10.0; Win64; x64) AppleWebKit/537.36 (KHTML, like Gecko) Chrome/126.0.0.0 Safari/537.36" etag="qV4pHj7AESkzHdqB5v77" version="22.1.18" type="device">
  <diagram id="C5RBs43oDa-KdzZeNtuy" name="Page-1">
    <mxGraphModel dx="1154" dy="538" grid="0" gridSize="10" guides="1" tooltips="1" connect="1" arrows="1" fold="1" page="1" pageScale="1" pageWidth="827" pageHeight="1169" math="0" shadow="0">
      <root>
        <mxCell id="WIyWlLk6GJQsqaUBKTNV-0" />
        <mxCell id="WIyWlLk6GJQsqaUBKTNV-1" parent="WIyWlLk6GJQsqaUBKTNV-0" />
        <mxCell id="0H-op_E-B68PcNS4kmL6-13" value="" style="shape=table;startSize=0;container=1;collapsible=0;childLayout=tableLayout;fontSize=16;" vertex="1" parent="WIyWlLk6GJQsqaUBKTNV-1">
          <mxGeometry x="160" y="160" width="460" height="40" as="geometry" />
        </mxCell>
        <mxCell id="0H-op_E-B68PcNS4kmL6-14" value="" style="shape=tableRow;horizontal=0;startSize=0;swimlaneHead=0;swimlaneBody=0;strokeColor=inherit;top=0;left=0;bottom=0;right=0;collapsible=0;dropTarget=0;fillColor=none;points=[[0,0.5],[1,0.5]];portConstraint=eastwest;fontSize=16;" vertex="1" parent="0H-op_E-B68PcNS4kmL6-13">
          <mxGeometry width="460" height="40" as="geometry" />
        </mxCell>
        <mxCell id="0H-op_E-B68PcNS4kmL6-26" value="as" style="shape=partialRectangle;html=1;whiteSpace=wrap;connectable=0;strokeColor=inherit;overflow=hidden;fillColor=none;top=0;left=0;bottom=0;right=0;pointerEvents=1;fontSize=16;" vertex="1" parent="0H-op_E-B68PcNS4kmL6-14">
          <mxGeometry width="42" height="40" as="geometry">
            <mxRectangle width="42" height="40" as="alternateBounds" />
          </mxGeometry>
        </mxCell>
        <mxCell id="0H-op_E-B68PcNS4kmL6-27" style="shape=partialRectangle;html=1;whiteSpace=wrap;connectable=0;strokeColor=inherit;overflow=hidden;fillColor=none;top=0;left=0;bottom=0;right=0;pointerEvents=1;fontSize=16;" vertex="1" parent="0H-op_E-B68PcNS4kmL6-14">
          <mxGeometry x="42" width="154" height="40" as="geometry">
            <mxRectangle width="154" height="40" as="alternateBounds" />
          </mxGeometry>
        </mxCell>
        <mxCell id="0H-op_E-B68PcNS4kmL6-15" value="ae" style="shape=partialRectangle;html=1;whiteSpace=wrap;connectable=0;strokeColor=inherit;overflow=hidden;fillColor=none;top=0;left=0;bottom=0;right=0;pointerEvents=1;fontSize=16;" vertex="1" parent="0H-op_E-B68PcNS4kmL6-14">
          <mxGeometry x="196" width="42" height="40" as="geometry">
            <mxRectangle width="42" height="40" as="alternateBounds" />
          </mxGeometry>
        </mxCell>
        <mxCell id="0H-op_E-B68PcNS4kmL6-62" value="bs" style="shape=partialRectangle;html=1;whiteSpace=wrap;connectable=0;strokeColor=inherit;overflow=hidden;fillColor=none;top=0;left=0;bottom=0;right=0;pointerEvents=1;fontSize=16;" vertex="1" parent="0H-op_E-B68PcNS4kmL6-14">
          <mxGeometry x="238" width="41" height="40" as="geometry">
            <mxRectangle width="41" height="40" as="alternateBounds" />
          </mxGeometry>
        </mxCell>
        <mxCell id="0H-op_E-B68PcNS4kmL6-16" value="" style="shape=partialRectangle;html=1;whiteSpace=wrap;connectable=0;strokeColor=inherit;overflow=hidden;fillColor=none;top=0;left=0;bottom=0;right=0;pointerEvents=1;fontSize=16;" vertex="1" parent="0H-op_E-B68PcNS4kmL6-14">
          <mxGeometry x="279" width="139" height="40" as="geometry">
            <mxRectangle width="139" height="40" as="alternateBounds" />
          </mxGeometry>
        </mxCell>
        <mxCell id="0H-op_E-B68PcNS4kmL6-17" value="be" style="shape=partialRectangle;html=1;whiteSpace=wrap;connectable=0;strokeColor=inherit;overflow=hidden;fillColor=none;top=0;left=0;bottom=0;right=0;pointerEvents=1;fontSize=16;" vertex="1" parent="0H-op_E-B68PcNS4kmL6-14">
          <mxGeometry x="418" width="42" height="40" as="geometry">
            <mxRectangle width="42" height="40" as="alternateBounds" />
          </mxGeometry>
        </mxCell>
        <mxCell id="0H-op_E-B68PcNS4kmL6-28" value="" style="shape=table;startSize=0;container=1;collapsible=0;childLayout=tableLayout;fontSize=16;" vertex="1" parent="WIyWlLk6GJQsqaUBKTNV-1">
          <mxGeometry x="84" y="544" width="697" height="40" as="geometry" />
        </mxCell>
        <mxCell id="0H-op_E-B68PcNS4kmL6-29" value="" style="shape=tableRow;horizontal=0;startSize=0;swimlaneHead=0;swimlaneBody=0;strokeColor=inherit;top=0;left=0;bottom=0;right=0;collapsible=0;dropTarget=0;fillColor=none;points=[[0,0.5],[1,0.5]];portConstraint=eastwest;fontSize=16;" vertex="1" parent="0H-op_E-B68PcNS4kmL6-28">
          <mxGeometry width="697" height="40" as="geometry" />
        </mxCell>
        <mxCell id="0H-op_E-B68PcNS4kmL6-30" value="as" style="shape=partialRectangle;html=1;whiteSpace=wrap;connectable=0;strokeColor=inherit;overflow=hidden;fillColor=none;top=0;left=0;bottom=0;right=0;pointerEvents=1;fontSize=16;" vertex="1" parent="0H-op_E-B68PcNS4kmL6-29">
          <mxGeometry width="42" height="40" as="geometry">
            <mxRectangle width="42" height="40" as="alternateBounds" />
          </mxGeometry>
        </mxCell>
        <mxCell id="0H-op_E-B68PcNS4kmL6-31" style="shape=partialRectangle;html=1;whiteSpace=wrap;connectable=0;strokeColor=inherit;overflow=hidden;fillColor=none;top=0;left=0;bottom=0;right=0;pointerEvents=1;fontSize=16;" vertex="1" parent="0H-op_E-B68PcNS4kmL6-29">
          <mxGeometry x="42" width="153" height="40" as="geometry">
            <mxRectangle width="153" height="40" as="alternateBounds" />
          </mxGeometry>
        </mxCell>
        <mxCell id="0H-op_E-B68PcNS4kmL6-79" value="ae" style="shape=partialRectangle;html=1;whiteSpace=wrap;connectable=0;strokeColor=inherit;overflow=hidden;fillColor=none;top=0;left=0;bottom=0;right=0;pointerEvents=1;fontSize=16;" vertex="1" parent="0H-op_E-B68PcNS4kmL6-29">
          <mxGeometry x="195" width="42" height="40" as="geometry">
            <mxRectangle width="42" height="40" as="alternateBounds" />
          </mxGeometry>
        </mxCell>
        <mxCell id="0H-op_E-B68PcNS4kmL6-32" value="bs" style="shape=partialRectangle;html=1;whiteSpace=wrap;connectable=0;strokeColor=inherit;overflow=hidden;fillColor=none;top=0;left=0;bottom=0;right=0;pointerEvents=1;fontSize=16;" vertex="1" parent="0H-op_E-B68PcNS4kmL6-29">
          <mxGeometry x="237" width="41" height="40" as="geometry">
            <mxRectangle width="41" height="40" as="alternateBounds" />
          </mxGeometry>
        </mxCell>
        <mxCell id="0H-op_E-B68PcNS4kmL6-33" value="" style="shape=partialRectangle;html=1;whiteSpace=wrap;connectable=0;strokeColor=inherit;overflow=hidden;fillColor=none;top=0;left=0;bottom=0;right=0;pointerEvents=1;fontSize=16;" vertex="1" parent="0H-op_E-B68PcNS4kmL6-29">
          <mxGeometry x="278" width="138" height="40" as="geometry">
            <mxRectangle width="138" height="40" as="alternateBounds" />
          </mxGeometry>
        </mxCell>
        <mxCell id="0H-op_E-B68PcNS4kmL6-80" value="be" style="shape=partialRectangle;html=1;whiteSpace=wrap;connectable=0;strokeColor=inherit;overflow=hidden;fillColor=none;top=0;left=0;bottom=0;right=0;pointerEvents=1;fontSize=16;" vertex="1" parent="0H-op_E-B68PcNS4kmL6-29">
          <mxGeometry x="416" width="41" height="40" as="geometry">
            <mxRectangle width="41" height="40" as="alternateBounds" />
          </mxGeometry>
        </mxCell>
        <mxCell id="0H-op_E-B68PcNS4kmL6-34" value="cs" style="shape=partialRectangle;html=1;whiteSpace=wrap;connectable=0;strokeColor=inherit;overflow=hidden;fillColor=none;top=0;left=0;bottom=0;right=0;pointerEvents=1;fontSize=16;" vertex="1" parent="0H-op_E-B68PcNS4kmL6-29">
          <mxGeometry x="457" width="42" height="40" as="geometry">
            <mxRectangle width="42" height="40" as="alternateBounds" />
          </mxGeometry>
        </mxCell>
        <mxCell id="0H-op_E-B68PcNS4kmL6-35" style="shape=partialRectangle;html=1;whiteSpace=wrap;connectable=0;strokeColor=inherit;overflow=hidden;fillColor=none;top=0;left=0;bottom=0;right=0;pointerEvents=1;fontSize=16;" vertex="1" parent="0H-op_E-B68PcNS4kmL6-29">
          <mxGeometry x="499" width="156" height="40" as="geometry">
            <mxRectangle width="156" height="40" as="alternateBounds" />
          </mxGeometry>
        </mxCell>
        <mxCell id="0H-op_E-B68PcNS4kmL6-36" value="ce" style="shape=partialRectangle;html=1;whiteSpace=wrap;connectable=0;strokeColor=inherit;overflow=hidden;fillColor=none;top=0;left=0;bottom=0;right=0;pointerEvents=1;fontSize=16;" vertex="1" parent="0H-op_E-B68PcNS4kmL6-29">
          <mxGeometry x="655" width="42" height="40" as="geometry">
            <mxRectangle width="42" height="40" as="alternateBounds" />
          </mxGeometry>
        </mxCell>
        <mxCell id="0H-op_E-B68PcNS4kmL6-63" value="as++" style="text;html=1;align=center;verticalAlign=middle;resizable=0;points=[];autosize=1;strokeColor=none;fillColor=none;" vertex="1" parent="WIyWlLk6GJQsqaUBKTNV-1">
          <mxGeometry x="160" y="200" width="50" height="30" as="geometry" />
        </mxCell>
        <mxCell id="0H-op_E-B68PcNS4kmL6-64" value="bs++" style="text;html=1;align=center;verticalAlign=middle;resizable=0;points=[];autosize=1;strokeColor=none;fillColor=none;" vertex="1" parent="WIyWlLk6GJQsqaUBKTNV-1">
          <mxGeometry x="400" y="200" width="50" height="30" as="geometry" />
        </mxCell>
        <mxCell id="0H-op_E-B68PcNS4kmL6-65" value="ae--" style="text;html=1;align=center;verticalAlign=middle;resizable=0;points=[];autosize=1;strokeColor=none;fillColor=none;" vertex="1" parent="WIyWlLk6GJQsqaUBKTNV-1">
          <mxGeometry x="360" y="200" width="40" height="30" as="geometry" />
        </mxCell>
        <mxCell id="0H-op_E-B68PcNS4kmL6-68" value="be--" style="text;html=1;align=center;verticalAlign=middle;resizable=0;points=[];autosize=1;strokeColor=none;fillColor=none;" vertex="1" parent="WIyWlLk6GJQsqaUBKTNV-1">
          <mxGeometry x="580" y="200" width="40" height="30" as="geometry" />
        </mxCell>
        <mxCell id="0H-op_E-B68PcNS4kmL6-70" value="" style="endArrow=classic;html=1;rounded=0;" edge="1" parent="WIyWlLk6GJQsqaUBKTNV-1">
          <mxGeometry width="50" height="50" relative="1" as="geometry">
            <mxPoint x="160" y="229" as="sourcePoint" />
            <mxPoint x="215" y="229" as="targetPoint" />
          </mxGeometry>
        </mxCell>
        <mxCell id="0H-op_E-B68PcNS4kmL6-73" value="" style="endArrow=classic;html=1;rounded=0;" edge="1" parent="WIyWlLk6GJQsqaUBKTNV-1">
          <mxGeometry width="50" height="50" relative="1" as="geometry">
            <mxPoint x="410" y="229" as="sourcePoint" />
            <mxPoint x="465" y="229" as="targetPoint" />
          </mxGeometry>
        </mxCell>
        <mxCell id="0H-op_E-B68PcNS4kmL6-75" value="" style="endArrow=classic;html=1;rounded=0;" edge="1" parent="WIyWlLk6GJQsqaUBKTNV-1">
          <mxGeometry width="50" height="50" relative="1" as="geometry">
            <mxPoint x="390" y="229" as="sourcePoint" />
            <mxPoint x="340" y="229" as="targetPoint" />
          </mxGeometry>
        </mxCell>
        <mxCell id="0H-op_E-B68PcNS4kmL6-77" value="" style="endArrow=classic;html=1;rounded=0;" edge="1" parent="WIyWlLk6GJQsqaUBKTNV-1">
          <mxGeometry width="50" height="50" relative="1" as="geometry">
            <mxPoint x="620" y="229" as="sourcePoint" />
            <mxPoint x="570" y="229" as="targetPoint" />
          </mxGeometry>
        </mxCell>
        <mxCell id="0H-op_E-B68PcNS4kmL6-82" value="as++" style="text;html=1;align=center;verticalAlign=middle;resizable=0;points=[];autosize=1;strokeColor=none;fillColor=none;" vertex="1" parent="WIyWlLk6GJQsqaUBKTNV-1">
          <mxGeometry x="84" y="584" width="50" height="30" as="geometry" />
        </mxCell>
        <mxCell id="0H-op_E-B68PcNS4kmL6-83" value="bs++" style="text;html=1;align=center;verticalAlign=middle;resizable=0;points=[];autosize=1;strokeColor=none;fillColor=none;" vertex="1" parent="WIyWlLk6GJQsqaUBKTNV-1">
          <mxGeometry x="321" y="584" width="50" height="30" as="geometry" />
        </mxCell>
        <mxCell id="0H-op_E-B68PcNS4kmL6-84" value="ae--" style="text;html=1;align=center;verticalAlign=middle;resizable=0;points=[];autosize=1;strokeColor=none;fillColor=none;" vertex="1" parent="WIyWlLk6GJQsqaUBKTNV-1">
          <mxGeometry x="281" y="584" width="40" height="30" as="geometry" />
        </mxCell>
        <mxCell id="0H-op_E-B68PcNS4kmL6-85" value="be--" style="text;html=1;align=center;verticalAlign=middle;resizable=0;points=[];autosize=1;strokeColor=none;fillColor=none;" vertex="1" parent="WIyWlLk6GJQsqaUBKTNV-1">
          <mxGeometry x="501" y="584" width="40" height="30" as="geometry" />
        </mxCell>
        <mxCell id="0H-op_E-B68PcNS4kmL6-86" value="" style="endArrow=classic;html=1;rounded=0;" edge="1" parent="WIyWlLk6GJQsqaUBKTNV-1">
          <mxGeometry width="50" height="50" relative="1" as="geometry">
            <mxPoint x="84" y="613" as="sourcePoint" />
            <mxPoint x="139" y="613" as="targetPoint" />
          </mxGeometry>
        </mxCell>
        <mxCell id="0H-op_E-B68PcNS4kmL6-87" value="" style="endArrow=classic;html=1;rounded=0;" edge="1" parent="WIyWlLk6GJQsqaUBKTNV-1">
          <mxGeometry width="50" height="50" relative="1" as="geometry">
            <mxPoint x="331" y="613" as="sourcePoint" />
            <mxPoint x="386" y="613" as="targetPoint" />
          </mxGeometry>
        </mxCell>
        <mxCell id="0H-op_E-B68PcNS4kmL6-88" value="" style="endArrow=classic;html=1;rounded=0;" edge="1" parent="WIyWlLk6GJQsqaUBKTNV-1">
          <mxGeometry width="50" height="50" relative="1" as="geometry">
            <mxPoint x="311" y="613" as="sourcePoint" />
            <mxPoint x="261" y="613" as="targetPoint" />
          </mxGeometry>
        </mxCell>
        <mxCell id="0H-op_E-B68PcNS4kmL6-89" value="" style="endArrow=classic;html=1;rounded=0;" edge="1" parent="WIyWlLk6GJQsqaUBKTNV-1">
          <mxGeometry width="50" height="50" relative="1" as="geometry">
            <mxPoint x="531" y="613" as="sourcePoint" />
            <mxPoint x="481" y="613" as="targetPoint" />
          </mxGeometry>
        </mxCell>
        <mxCell id="0H-op_E-B68PcNS4kmL6-91" value="cs++" style="text;html=1;align=center;verticalAlign=middle;resizable=0;points=[];autosize=1;strokeColor=none;fillColor=none;" vertex="1" parent="WIyWlLk6GJQsqaUBKTNV-1">
          <mxGeometry x="541" y="584" width="50" height="30" as="geometry" />
        </mxCell>
        <mxCell id="0H-op_E-B68PcNS4kmL6-93" value="ce--" style="text;html=1;align=center;verticalAlign=middle;resizable=0;points=[];autosize=1;strokeColor=none;fillColor=none;" vertex="1" parent="WIyWlLk6GJQsqaUBKTNV-1">
          <mxGeometry x="741" y="584" width="40" height="30" as="geometry" />
        </mxCell>
        <mxCell id="0H-op_E-B68PcNS4kmL6-95" value="" style="endArrow=classic;html=1;rounded=0;" edge="1" parent="WIyWlLk6GJQsqaUBKTNV-1">
          <mxGeometry width="50" height="50" relative="1" as="geometry">
            <mxPoint x="551" y="613" as="sourcePoint" />
            <mxPoint x="606" y="613" as="targetPoint" />
          </mxGeometry>
        </mxCell>
        <mxCell id="0H-op_E-B68PcNS4kmL6-97" value="" style="endArrow=classic;html=1;rounded=0;" edge="1" parent="WIyWlLk6GJQsqaUBKTNV-1">
          <mxGeometry width="50" height="50" relative="1" as="geometry">
            <mxPoint x="771" y="613" as="sourcePoint" />
            <mxPoint x="721" y="613" as="targetPoint" />
          </mxGeometry>
        </mxCell>
        <mxCell id="0H-op_E-B68PcNS4kmL6-102" value="Text" style="text;html=1;align=center;verticalAlign=middle;resizable=0;points=[];autosize=1;strokeColor=none;fillColor=none;" vertex="1" parent="WIyWlLk6GJQsqaUBKTNV-1">
          <mxGeometry x="678" y="200" width="40" height="26" as="geometry" />
        </mxCell>
      </root>
    </mxGraphModel>
  </diagram>
</mxfile>
